<svg id="Capa_1" enable-background="new 0 0 511.965 511.965" height="512" viewBox="0 0 511.965 511.965" width="512" xmlns="http://www.w3.org/2000/svg" xmlns:xlink="http://www.w3.org/1999/xlink"><linearGradient id="SVGID_1_" gradientUnits="userSpaceOnUse" x1="89.409" x2="496.961" y1="422.783" y2="15.231"><stop offset="0" stop-color="#5558ff"/><stop offset="1" stop-color="#00c0ff"/></linearGradient><linearGradient id="SVGID_2_" gradientUnits="userSpaceOnUse" x1="221.502" x2="444.246" y1="290.69" y2="67.946"><stop offset="0" stop-color="#addcff"/><stop offset=".5028" stop-color="#eaf6ff"/><stop offset="1" stop-color="#eaf6ff"/></linearGradient><g><g><g><path d="m454.004.063c-32.032 1.062-70.216 20.153-93.337 46.669l-42.003 48.365-110.819 33.433 14.298 78.362-88.064 102.977-94.914-18.668c-5.091-.847-9.97.637-13.577 4.244l-21.213 21.213c-3.181 3.181-4.879 7.849-4.243 12.304.425 4.667 3.182 8.696 7.213 11.03l104.672 61.942 61.942 102.672c.854 2.567 5.221 6.484 11.03 7.213 4.455.636 9.123-1.062 12.304-4.243l21.213-21.213c3.607-3.607 5.091-8.486 4.244-13.577l-18.668-92.914 101.216-89.825 79.994 12.905 31.588-109.213 48.578-42.215c26.092-22.697 45.184-60.882 46.457-93.125 1.274-36.487-22.273-59.609-57.911-58.336zm-199.165 108.797 40.914-40.914c5.863-5.863 5.863-15.351 0-21.213-5.863-5.863-15.351-5.863-21.213 0l-40.914 40.914c-5.863 5.863-5.863 15.351 0 21.213s15.351 5.862 21.213 0zm169.706 169.705 40.914-40.914c5.863-5.863 5.863-15.35 0-21.213s-15.351-5.863-21.213 0l-40.914 40.914c-5.863 5.863-5.863 15.351 0 21.213 5.862 5.863 15.35 5.863 21.213 0zm-242.429-181.835 39.392-39.392c5.863-5.863 5.863-15.351 0-21.213-5.863-5.863-15.351-5.863-21.213 0l-39.391 39.392c-5.863 5.863-5.863 15.351 0 21.213 5.861 5.863 15.349 5.863 21.212 0zm272.736 193.954-39.391 39.392c-5.863 5.863-5.863 15.351 0 21.213s15.351 5.862 21.213 0l39.391-39.392c5.863-5.863 5.863-15.351 0-21.213-5.862-5.862-15.35-5.862-21.213 0z" fill="url(#SVGID_1_)"/></g></g><g><g><path d="m64.955 53.096c-4.88-.636-9.758.848-13.153 4.243l-21.214 21.213c-3.393 3.394-4.879 7.849-4.242 12.727.423 3.394 1.908 6.153 4.242 8.486 2.661 2.661-5.019-2.324 191.555 107.126l96.521-111.794zm394.14 394.14-42.214-253.496-111.582 96.309c109.667 196.961 104.505 188.932 107.127 191.554 2.333 2.333 5.092 3.818 8.486 4.242 4.879.637 9.334-.848 12.727-4.242l21.213-21.213c3.395-3.395 4.879-8.274 4.243-13.154zm-36.063-336.864 21.213-21.213c5.863-5.863 5.863-15.351 0-21.213s-15.35-5.863-21.213 0l-21.213 21.213c-5.863 5.863-5.863 15.351 0 21.213 5.863 5.863 15.351 5.863 21.213 0z" fill="url(#SVGID_2_)"/></g></g></g></svg>